<svg width="23" height="23" viewBox="0 0 23 23" fill="none" xmlns="http://www.w3.org/2000/svg">
<path d="M13.5497 5C14.5264 5.19057 15.424 5.66826 16.1277 6.37194C16.8314 7.07561 17.3091 7.97326 17.4997 8.95M13.5497 1C15.5789 1.22544 17.4713 2.13417 18.9159 3.57701C20.3606 5.01984 21.2717 6.91101 21.4997 8.94M9.72664 12.8631C8.52506 11.6615 7.57627 10.3028 6.88028 8.85323C6.82041 8.72854 6.79048 8.66619 6.76748 8.5873C6.68576 8.30695 6.74446 7.96269 6.91447 7.72526C6.96231 7.65845 7.01947 7.60129 7.13378 7.48698C7.48338 7.13737 7.65819 6.96257 7.77247 6.78679C8.20347 6.1239 8.20347 5.26932 7.77247 4.60643C7.65819 4.43065 7.48338 4.25585 7.13378 3.90624L6.93891 3.71137C6.40747 3.17993 6.14174 2.91421 5.85636 2.76987C5.2888 2.4828 4.61854 2.4828 4.05098 2.76987C3.7656 2.91421 3.49987 3.17993 2.96843 3.71137L2.8108 3.86901C2.28117 4.39863 2.01636 4.66344 1.81411 5.02348C1.58969 5.42298 1.42833 6.04347 1.4297 6.5017C1.43092 6.91464 1.51103 7.19687 1.67124 7.76131C2.53221 10.7947 4.15668 13.6571 6.54466 16.045C8.93264 18.433 11.795 20.0575 14.8284 20.9185C15.3928 21.0787 15.6751 21.1588 16.088 21.16C16.5462 21.1614 17.1667 21 17.5662 20.7756C17.9263 20.5733 18.1911 20.3085 18.7207 19.7789L18.8783 19.6213C19.4098 19.0898 19.6755 18.8241 19.8198 18.5387C20.1069 17.9712 20.1069 17.3009 19.8198 16.7333C19.6755 16.448 19.4098 16.1822 18.8783 15.6508L18.6835 15.4559C18.3339 15.1063 18.1591 14.9315 17.9833 14.8172C17.3204 14.3862 16.4658 14.3862 15.8029 14.8172C15.6271 14.9315 15.4523 15.1063 15.1027 15.4559C14.9884 15.5702 14.9313 15.6274 14.8644 15.6752C14.627 15.8453 14.2828 15.904 14.0024 15.8222C13.9235 15.7992 13.8612 15.7693 13.7365 15.7094C12.2869 15.0134 10.9282 14.0646 9.72664 12.8631Z" stroke="#1E1E1E" stroke-width="2" stroke-linecap="round" stroke-linejoin="round"/>
</svg>
